<?xml version="1.0" encoding="UTF-8" standalone="no"?>
<!DOCTYPE svg PUBLIC "-//W3C//DTD SVG 1.1//EN" "http://www.w3.org/Graphics/SVG/1.1/DTD/svg11.dtd">
<!-- Created with Vectornator (http://vectornator.io/) -->
<svg height="100%" stroke-miterlimit="10" style="fill-rule:nonzero;clip-rule:evenodd;stroke-linecap:round;stroke-linejoin:round;" version="1.1" viewBox="0 0 1024 358.606" width="100%" xml:space="preserve" xmlns="http://www.w3.org/2000/svg" xmlns:vectornator="http://vectornator.io" xmlns:xlink="http://www.w3.org/1999/xlink">
<defs/>
<clipPath id="ArtboardFrame">
<rect height="358.606" width="1024" x="0" y="0"/>
</clipPath>
<g clip-path="url(#ArtboardFrame)" id="Layer-1" vectornator:layerName="Layer 1">
<path d="M46.1404 528.08C46.1404 514.427 56.4521 503.359 69.1722 503.359L230.914 504.964L294.151 597.534L295.006 786.392C295.006 800.045 284.695 811.113 271.975 811.113L69.1722 811.113C56.4521 811.113 46.1404 800.045 46.1404 786.392L46.1404 528.08Z" fill="none" opacity="1" stroke="#5233dd" stroke-linecap="round" stroke-linejoin="round" stroke-width="25" vectornator:layerName="Rectangle 1"/>
<path d="M95.3639 713.034L245.783 712.659" fill="none" opacity="1" stroke="#5233dd" stroke-linecap="round" stroke-linejoin="round" stroke-width="20" vectornator:layerName="Line 1"/>
<path d="M95.3639 757.546L226.1 757.165" fill="none" opacity="1" stroke="#5233dd" stroke-linecap="round" stroke-linejoin="round" stroke-width="20" vectornator:layerName="Line 2"/>
<path d="M154.265 582.511C153.728 580.278 152.103 578.533 150.022 577.957L131.907 572.943C131.272 572.75 130.834 572.128 130.834 571.419C130.834 570.711 131.272 570.088 131.907 569.895L150.022 564.878C152.102 564.302 153.727 562.559 154.265 560.327L158.936 540.883C159.115 540.199 159.696 539.726 160.358 539.726C161.02 539.726 161.601 540.199 161.78 540.883L166.448 560.327C166.985 562.56 168.61 564.305 170.691 564.881L188.806 569.891C189.446 570.081 189.89 570.706 189.89 571.419C189.89 572.132 189.446 572.757 188.806 572.947L170.691 577.957C168.61 578.533 166.985 580.278 166.448 582.511L161.777 601.955C161.598 602.639 161.017 603.112 160.355 603.112C159.693 603.112 159.112 602.639 158.933 601.955L154.265 582.511Z" fill="#4623a5" fill-rule="nonzero" opacity="1" stroke="#5233dd" stroke-linecap="round" stroke-linejoin="round" stroke-width="10" vectornator:layerName="path"/>
<path d="M119.326 634.753C118.929 633.102 117.727 631.812 116.188 631.386L102.792 627.678C102.322 627.535 101.998 627.074 101.998 626.55C101.998 626.026 102.322 625.566 102.792 625.423L116.188 621.713C117.726 621.287 118.928 619.998 119.326 618.347L122.78 603.968C122.912 603.462 123.342 603.112 123.832 603.112C124.321 603.112 124.751 603.462 124.883 603.968L128.335 618.347C128.732 619.999 129.934 621.289 131.473 621.715L144.87 625.421C145.343 625.561 145.671 626.023 145.671 626.55C145.671 627.078 145.343 627.54 144.87 627.68L131.473 631.386C129.934 631.812 128.732 633.102 128.335 634.753L124.881 649.132C124.749 649.639 124.319 649.988 123.83 649.988C123.34 649.988 122.91 649.639 122.778 649.132L119.326 634.753Z" fill="#4623a5" fill-rule="nonzero" opacity="1" stroke="#5233dd" stroke-linecap="round" stroke-linejoin="round" stroke-width="10" vectornator:layerName="path 1"/>
<path d="M189.286 658.847C188.858 657.063 187.56 655.67 185.898 655.21L171.43 651.206C170.923 651.051 170.573 650.554 170.573 649.988C170.573 649.422 170.923 648.925 171.43 648.771L185.898 644.764C187.559 644.304 188.857 642.912 189.286 641.129L193.017 625.601C193.16 625.054 193.624 624.676 194.152 624.676C194.681 624.676 195.145 625.054 195.288 625.601L199.016 641.129C199.445 642.913 200.743 644.306 202.405 644.766L216.872 648.768C217.384 648.92 217.738 649.419 217.738 649.988C217.738 650.557 217.384 651.057 216.872 651.208L202.405 655.21C200.743 655.67 199.445 657.063 199.016 658.847L195.286 674.375C195.143 674.922 194.679 675.3 194.15 675.3C193.621 675.3 193.157 674.922 193.015 674.375L189.286 658.847Z" fill="#4623a5" fill-rule="nonzero" opacity="1" stroke="#5233dd" stroke-linecap="round" stroke-linejoin="round" stroke-width="10" vectornator:layerName="path 2"/>
<g opacity="1" vectornator:layerName="Text 1">
<path d="M357.176 125.617L385.521 125.617C392.894 125.617 399.217 126.301 404.49 127.668C409.764 129.035 414.549 131.599 418.846 135.359C430.027 144.929 435.618 159.48 435.618 179.011C435.618 185.456 435.057 191.34 433.934 196.662C432.811 201.985 431.077 206.782 428.734 211.054C426.39 215.327 423.387 219.148 419.725 222.517C416.844 225.105 413.694 227.18 410.277 228.742C406.859 230.305 403.184 231.402 399.254 232.038C395.323 232.673 390.892 232.99 385.96 232.99L357.615 232.99C353.66 232.99 350.682 232.392 348.68 231.195C346.678 230 345.372 228.315 344.761 226.142C344.151 223.969 343.846 221.15 343.846 217.683L343.846 138.947C343.846 134.26 344.896 130.866 346.995 128.767C349.095 126.667 352.488 125.617 357.176 125.617ZM365.599 142.829L365.599 215.704L382.078 215.704C385.692 215.704 388.524 215.608 390.574 215.411C392.625 215.217 394.749 214.728 396.946 213.947C399.144 213.166 401.048 212.068 402.659 210.652C409.935 204.499 413.572 193.903 413.572 178.864C413.572 168.269 411.973 160.334 408.775 155.061C405.577 149.787 401.634 146.43 396.946 144.99C392.259 143.549 386.595 142.829 379.954 142.829L365.599 142.829Z" fill="#5233dd" fill-rule="nonzero" opacity="1" stroke="#5233dd" stroke-linecap="round" stroke-linejoin="round" stroke-width="5" vectornator:layerName="path"/>
<path d="M528.196 194.172C528.196 200.129 527.269 205.622 525.413 210.652C523.558 215.68 520.872 220.002 517.357 223.615C513.841 227.228 509.642 230 504.759 231.928C499.876 233.857 494.383 234.82 488.279 234.82C482.225 234.82 476.78 233.844 471.946 231.892C467.112 229.939 462.925 227.142 459.385 223.506C455.845 219.868 453.16 215.571 451.329 210.615C449.498 205.659 448.582 200.178 448.582 194.172C448.582 188.117 449.51 182.575 451.365 177.546C453.221 172.517 455.882 168.22 459.349 164.655C462.816 161.091 467.015 158.344 471.946 156.416C476.878 154.487 482.322 153.523 488.279 153.523C494.334 153.523 499.827 154.499 504.759 156.452C509.691 158.405 513.914 161.189 517.43 164.802C520.945 168.415 523.619 172.712 525.45 177.693C527.281 182.673 528.196 188.166 528.196 194.172ZM508.128 194.172C508.128 186.018 506.334 179.67 502.745 175.129C499.156 170.588 494.334 168.318 488.279 168.318C484.373 168.318 480.931 169.331 477.952 171.357C474.974 173.383 472.679 176.374 471.068 180.329C469.456 184.284 468.651 188.899 468.651 194.172C468.651 199.397 469.444 203.962 471.031 207.868C472.618 211.775 474.888 214.765 477.842 216.841C480.797 218.916 484.276 219.953 488.279 219.953C494.334 219.953 499.156 217.671 502.745 213.105C506.334 208.54 508.128 202.229 508.128 194.172Z" fill="#5233dd" fill-rule="nonzero" opacity="1" stroke="#5233dd" stroke-linecap="round" stroke-linejoin="round" stroke-width="5" vectornator:layerName="path"/>
<path d="M615.648 210.066C615.648 212.555 614.903 215.217 613.414 218.049C611.924 220.881 609.654 223.579 606.602 226.142C603.55 228.705 599.705 230.769 595.067 232.33C590.428 233.894 585.203 234.675 579.393 234.675C567.039 234.675 557.396 231.074 550.462 223.872C543.528 216.67 540.062 207.014 540.062 194.904C540.062 186.701 541.649 179.45 544.822 173.152C547.996 166.853 552.586 161.982 558.592 158.54C564.598 155.097 571.776 153.376 580.125 153.376C585.301 153.376 590.049 154.133 594.371 155.647C598.692 157.16 602.354 159.113 605.357 161.506C608.36 163.899 610.655 166.45 612.242 169.16C613.829 171.87 614.622 174.397 614.622 176.74C614.622 179.133 613.731 181.159 611.949 182.82C610.167 184.48 608.006 185.31 605.467 185.31C603.807 185.31 602.427 184.882 601.329 184.028C600.23 183.174 598.997 181.794 597.63 179.89C595.189 176.179 592.637 173.396 589.976 171.54C587.315 169.685 583.934 168.757 579.832 168.757C573.924 168.757 569.163 171.064 565.55 175.678C561.937 180.293 560.13 186.604 560.13 194.612C560.13 198.371 560.594 201.826 561.522 204.975C562.449 208.125 563.792 210.81 565.55 213.031C567.308 215.254 569.432 216.938 571.922 218.086C574.412 219.233 577.147 219.807 580.125 219.807C584.129 219.807 587.559 218.879 590.416 217.024C593.272 215.168 595.799 212.336 597.996 208.528C599.217 206.281 600.535 204.524 601.951 203.254C603.367 201.985 605.101 201.35 607.152 201.35C609.593 201.35 611.619 202.278 613.231 204.133C614.842 205.988 615.648 207.966 615.648 210.066Z" fill="#5233dd" fill-rule="nonzero" opacity="1" stroke="#5233dd" stroke-linecap="round" stroke-linejoin="round" stroke-width="5" vectornator:layerName="path"/>
<path d="M698.631 142.39L655.784 142.39L655.784 169.856L691.6 169.856C694.92 169.856 697.398 170.6 699.034 172.09C700.67 173.579 701.487 175.569 701.487 178.059C701.487 180.549 700.657 182.527 698.997 183.991C697.337 185.456 694.871 186.189 691.6 186.189L655.784 186.189L655.784 221.565C655.784 226.057 654.771 229.389 652.745 231.562C650.718 233.735 648.118 234.82 644.944 234.82C641.722 234.82 639.097 233.723 637.071 231.526C635.045 229.328 634.031 226.007 634.031 221.565L634.031 138.947C634.031 135.822 634.495 133.271 635.423 131.294C636.351 129.316 637.803 127.876 639.781 126.972C641.758 126.069 644.285 125.617 647.361 125.617L698.631 125.617C702.098 125.617 704.673 126.386 706.358 127.924C708.043 129.463 708.885 131.477 708.885 133.967C708.885 136.506 708.043 138.545 706.358 140.083C704.673 141.621 702.098 142.39 698.631 142.39Z" fill="#5233dd" fill-rule="nonzero" opacity="1" stroke="#5233dd" stroke-linecap="round" stroke-linejoin="round" stroke-width="5" vectornator:layerName="path"/>
<path d="M721.702 222.663L721.702 135.945C721.702 131.941 722.593 128.913 724.376 126.862C726.158 124.812 728.563 123.786 731.59 123.786C734.617 123.786 737.059 124.799 738.914 126.826C740.77 128.852 741.697 131.892 741.697 135.945L741.697 222.663C741.697 226.716 740.757 229.756 738.878 231.781C736.998 233.808 734.568 234.82 731.59 234.82C728.66 234.82 726.28 233.772 724.449 231.671C722.618 229.572 721.702 226.57 721.702 222.663Z" fill="#5233dd" fill-rule="nonzero" opacity="1" stroke="#5233dd" stroke-linecap="round" stroke-linejoin="round" stroke-width="5" vectornator:layerName="path"/>
<path d="M837.205 194.172C837.205 200.129 836.277 205.622 834.422 210.652C832.567 215.68 829.881 220.002 826.365 223.615C822.85 227.228 818.651 230 813.768 231.928C808.885 233.857 803.392 234.82 797.288 234.82C791.234 234.82 785.789 233.844 780.955 231.892C776.121 229.939 771.934 227.142 768.394 223.506C764.854 219.868 762.169 215.571 760.338 210.615C758.506 205.659 757.591 200.178 757.591 194.172C757.591 188.117 758.519 182.575 760.374 177.546C762.23 172.517 764.891 168.22 768.358 164.655C771.824 161.091 776.024 158.344 780.955 156.416C785.887 154.487 791.331 153.523 797.288 153.523C803.343 153.523 808.836 154.499 813.768 156.452C818.699 158.405 822.923 161.189 826.439 164.802C829.954 168.415 832.628 172.712 834.459 177.693C836.29 182.673 837.205 188.166 837.205 194.172ZM817.137 194.172C817.137 186.018 815.342 179.67 811.754 175.129C808.165 170.588 803.343 168.318 797.288 168.318C793.382 168.318 789.94 169.331 786.961 171.357C783.983 173.383 781.688 176.374 780.076 180.329C778.465 184.284 777.659 188.899 777.659 194.172C777.659 199.397 778.453 203.962 780.04 207.868C781.627 211.775 783.897 214.765 786.851 216.841C789.805 218.916 793.284 219.953 797.288 219.953C803.343 219.953 808.165 217.671 811.754 213.105C815.342 208.54 817.137 202.229 817.137 194.172Z" fill="#5233dd" fill-rule="nonzero" opacity="1" stroke="#5233dd" stroke-linecap="round" stroke-linejoin="round" stroke-width="5" vectornator:layerName="path"/>
<path d="M865.403 165.974L878.441 210.652L890.306 169.123C891.575 164.778 892.515 161.811 893.126 160.224C893.736 158.637 894.883 157.124 896.568 155.683C898.253 154.243 900.56 153.523 903.489 153.523C906.468 153.523 908.799 154.243 910.484 155.683C912.169 157.124 913.353 158.686 914.036 160.371C914.72 162.055 915.672 164.973 916.893 169.123L928.758 210.652L941.942 165.974C942.82 162.751 943.528 160.42 944.066 158.979C944.603 157.539 945.506 156.269 946.776 155.171C948.045 154.072 949.876 153.523 952.269 153.523C954.661 153.523 956.736 154.353 958.494 156.013C960.252 157.673 961.131 159.626 961.131 161.872C961.131 163.923 960.374 167.024 958.86 171.174L942.527 219.074C941.111 223.127 940.013 226.057 939.232 227.863C938.45 229.67 937.217 231.281 935.533 232.697C933.848 234.113 931.541 234.82 928.611 234.82C925.584 234.82 923.204 234.065 921.47 232.55C919.737 231.036 918.455 229.181 917.625 226.985C916.795 224.786 915.892 221.93 914.915 218.415L903.489 179.45L892.43 218.415C890.965 223.834 889.378 227.924 887.669 230.683C885.96 233.442 882.957 234.82 878.66 234.82C876.463 234.82 874.595 234.394 873.057 233.54C871.519 232.685 870.237 231.464 869.212 229.877C868.187 228.291 867.283 226.411 866.502 224.238C865.721 222.065 865.11 220.344 864.671 219.074L848.485 171.174C846.873 166.682 846.068 163.581 846.068 161.872C846.068 159.724 846.922 157.795 848.631 156.086C850.34 154.377 852.44 153.523 854.93 153.523C858.25 153.523 860.496 154.463 861.668 156.342C862.84 158.222 864.085 161.433 865.403 165.974Z" fill="#5233dd" fill-rule="nonzero" opacity="1" stroke="#5233dd" stroke-linecap="round" stroke-linejoin="round" stroke-width="5" vectornator:layerName="path"/>
</g>
<path d="M799.055 626.55L679.137 626.55C664.42 626.55 652.489 638.481 652.489 653.199L652.489 866.386C652.489 881.104 664.42 893.034 679.137 893.034L839.028 893.034C853.745 893.034 865.676 881.104 865.676 866.386L865.676 693.171L799.055 626.55Z" fill="none" opacity="1" stroke="#5233dd" stroke-linecap="round" stroke-linejoin="round" stroke-width="25" vectornator:layerName="path 3"/>
<path d="M784.707 841.151L691.348 841.151" fill="none" opacity="1" stroke="#5233dd" stroke-linecap="round" stroke-linejoin="round" stroke-width="25" vectornator:layerName="path 4"/>
<path d="M800.266 747.792L691.348 747.792" fill="none" opacity="1" stroke="#5233dd" stroke-linecap="round" stroke-linejoin="round" stroke-width="25" vectornator:layerName="path 5"/>
<path d="M824.45 794.472L691.348 794.472" fill="none" opacity="1" stroke="#5233dd" stroke-linecap="round" stroke-linejoin="round" stroke-width="25" vectornator:layerName="path 6"/>
<path d="M747.411 685.321C746.993 683.702 745.729 682.438 744.11 682.02L730.02 678.387C729.526 678.247 729.185 677.795 729.185 677.282C729.185 676.768 729.526 676.317 730.02 676.177L744.11 672.541C745.729 672.124 746.993 670.861 747.411 669.243L751.044 655.152C751.183 654.656 751.635 654.313 752.15 654.313C752.665 654.313 753.117 654.656 753.256 655.152L756.887 669.243C757.305 670.862 758.569 672.126 760.188 672.544L774.279 676.175C774.777 676.312 775.122 676.765 775.122 677.282C775.122 677.799 774.777 678.252 774.279 678.389L760.188 682.02C758.569 682.438 757.305 683.702 756.887 685.321L753.254 699.412C753.115 699.908 752.663 700.25 752.148 700.25C751.633 700.25 751.181 699.908 751.042 699.412L747.411 685.321Z" fill="#5233dd" fill-rule="nonzero" opacity="1" stroke="#5233dd" stroke-linecap="round" stroke-linejoin="round" stroke-width="5" vectornator:layerName="path 7"/>
<path d="M779.482 716.182C779.235 715.248 778.501 714.522 777.564 714.287L769.41 712.236C769.124 712.157 768.926 711.897 768.924 711.601C768.922 711.304 769.117 711.042 769.402 710.959L777.531 708.81C778.464 708.563 779.19 707.829 779.426 706.893L781.477 698.739C781.555 698.452 781.815 698.252 782.113 698.25C782.411 698.249 782.673 698.445 782.755 698.731L784.902 706.86C785.149 707.794 785.883 708.52 786.82 708.755L794.974 710.805C795.262 710.882 795.463 711.143 795.465 711.441C795.467 711.74 795.269 712.003 794.982 712.084L786.853 714.231C785.919 714.478 785.193 715.212 784.957 716.149L782.907 724.303C782.829 724.59 782.569 724.79 782.271 724.792C781.973 724.793 781.711 724.597 781.629 724.311L779.482 716.182Z" fill="#5233dd" fill-rule="nonzero" opacity="1" stroke="#5233dd" stroke-linecap="round" stroke-linejoin="round" stroke-width="5" vectornator:layerName="path 8"/>
<path d="M715.172 705.894C714.931 704.958 714.201 704.228 713.266 703.986L705.125 701.882C704.84 701.801 704.643 701.54 704.643 701.244C704.643 700.947 704.84 700.687 705.126 700.606L713.268 698.509C714.203 698.268 714.934 697.539 715.176 696.604L717.28 688.464C717.36 688.177 717.621 687.979 717.919 687.98C718.217 687.98 718.478 688.178 718.558 688.465L720.652 696.607C720.892 697.543 721.622 698.273 722.558 698.515L730.698 700.617C730.986 700.697 731.185 700.959 731.185 701.257C731.185 701.556 730.985 701.817 730.697 701.897L722.555 703.99C721.619 704.231 720.889 704.961 720.647 705.896L718.543 714.037C718.463 714.323 718.202 714.521 717.904 714.521C717.607 714.521 717.346 714.323 717.265 714.036L715.172 705.894Z" fill="#5233dd" fill-rule="nonzero" opacity="1" stroke="#5233dd" stroke-linecap="round" stroke-linejoin="round" stroke-width="5" vectornator:layerName="path 9"/>
<path d="M166.064 165.337C164.893 160.798 161.349 157.253 156.81 156.082L117.298 145.894C115.913 145.501 114.957 144.236 114.957 142.796C114.957 141.356 115.913 140.091 117.298 139.698L156.81 129.503C161.347 128.333 164.891 124.791 166.064 120.255L176.253 80.7428C176.642 79.352 177.91 78.3905 179.354 78.3905C180.798 78.3905 182.066 79.352 182.455 80.7428L192.637 120.255C193.808 124.794 197.353 128.338 201.892 129.509L241.404 139.692C242.801 140.077 243.768 141.347 243.768 142.796C243.768 144.245 242.801 145.515 241.404 145.9L201.892 156.082C197.353 157.253 193.808 160.798 192.637 165.337L182.449 204.849C182.06 206.24 180.792 207.201 179.348 207.201C177.904 207.201 176.636 206.24 176.247 204.849L166.064 165.337Z" fill="#5233dd" fill-rule="nonzero" opacity="1" stroke="#5233dd" stroke-linecap="round" stroke-linejoin="round" stroke-width="5" vectornator:layerName="path 10"/>
<path d="M255.995 251.875C255.303 249.256 253.242 247.22 250.616 246.56L227.751 240.81C226.95 240.587 226.393 239.86 226.388 239.028C226.383 238.196 226.931 237.462 227.73 237.23L250.523 231.203C253.141 230.511 255.176 228.452 255.839 225.827L261.588 202.963C261.808 202.158 262.537 201.598 263.372 201.593C264.206 201.588 264.942 202.139 265.172 202.941L271.192 225.735C271.884 228.354 273.944 230.389 276.571 231.05L299.435 236.796C300.243 237.014 300.807 237.744 300.812 238.581C300.817 239.418 300.262 240.156 299.457 240.383L276.663 246.403C274.045 247.096 272.009 249.156 271.348 251.782L265.598 274.647C265.378 275.452 264.649 276.011 263.815 276.016C262.98 276.021 262.245 275.47 262.015 274.668L255.995 251.875Z" fill="#5233dd" fill-rule="nonzero" opacity="1" stroke="#5233dd" stroke-linecap="round" stroke-linejoin="round" stroke-width="5" vectornator:layerName="path 11"/>
<path d="M75.6628 223.025C74.9875 220.402 72.9406 218.353 70.3182 217.675L47.492 211.777C46.6918 211.549 46.1399 210.818 46.1404 209.986C46.1408 209.155 46.6934 208.424 47.4938 208.197L70.326 202.318C72.9481 201.644 74.9969 199.598 75.676 196.977L81.5744 174.151C81.7997 173.348 82.5324 172.793 83.3668 172.793C84.2013 172.793 84.9334 173.349 85.1579 174.153L91.0294 196.985C91.7047 199.608 93.7517 201.657 96.374 202.335L119.2 208.23C120.007 208.453 120.566 209.187 120.565 210.024C120.565 210.861 120.005 211.595 119.198 211.817L96.3662 217.689C93.7432 218.364 91.6942 220.411 91.0162 223.033L85.1178 245.859C84.8925 246.663 84.1599 247.218 83.3254 247.218C82.491 247.217 81.7589 246.661 81.5344 245.858L75.6628 223.025Z" fill="#5233dd" fill-rule="nonzero" opacity="1" stroke="#5233dd" stroke-linecap="round" stroke-linejoin="round" stroke-width="5" vectornator:layerName="path 12"/>
</g>
</svg>
