<?xml version="1.0" encoding="UTF-8" standalone="no"?>
<!DOCTYPE svg PUBLIC "-//W3C//DTD SVG 1.1//EN" "http://www.w3.org/Graphics/SVG/1.1/DTD/svg11.dtd">
<!-- Created with Vectornator (http://vectornator.io/) -->
<svg height="100%" stroke-miterlimit="10" style="fill-rule:nonzero;clip-rule:evenodd;stroke-linecap:round;stroke-linejoin:round;" version="1.1" viewBox="0 0 1024 358.606" width="100%" xml:space="preserve" xmlns="http://www.w3.org/2000/svg" xmlns:vectornator="http://vectornator.io" xmlns:xlink="http://www.w3.org/1999/xlink">
<defs/>
<clipPath id="ArtboardFrame">
<rect height="358.606" width="1024" x="0" y="0"/>
</clipPath>
<g clip-path="url(#ArtboardFrame)" id="Layer-1" vectornator:layerName="Layer 1">
<path d="M46.1404 528.08C46.1404 514.427 56.4521 503.359 69.1722 503.359L230.914 504.964L294.151 597.534L295.006 786.392C295.006 800.045 284.695 811.113 271.975 811.113L69.1722 811.113C56.4521 811.113 46.1404 800.045 46.1404 786.392L46.1404 528.08Z" fill="none" opacity="1" stroke="#5233dd" stroke-linecap="round" stroke-linejoin="round" stroke-width="25" vectornator:layerName="Rectangle 1"/>
<path d="M95.3639 713.034L245.783 712.659" fill="none" opacity="1" stroke="#5233dd" stroke-linecap="round" stroke-linejoin="round" stroke-width="20" vectornator:layerName="Line 1"/>
<path d="M95.3639 757.546L226.1 757.165" fill="none" opacity="1" stroke="#5233dd" stroke-linecap="round" stroke-linejoin="round" stroke-width="20" vectornator:layerName="Line 2"/>
<path d="M154.265 582.511C153.728 580.278 152.103 578.533 150.022 577.957L131.907 572.943C131.272 572.75 130.834 572.128 130.834 571.419C130.834 570.711 131.272 570.088 131.907 569.895L150.022 564.878C152.102 564.302 153.727 562.559 154.265 560.327L158.936 540.883C159.115 540.199 159.696 539.726 160.358 539.726C161.02 539.726 161.601 540.199 161.78 540.883L166.448 560.327C166.985 562.56 168.61 564.305 170.691 564.881L188.806 569.891C189.446 570.081 189.89 570.706 189.89 571.419C189.89 572.132 189.446 572.757 188.806 572.947L170.691 577.957C168.61 578.533 166.985 580.278 166.448 582.511L161.777 601.955C161.598 602.639 161.017 603.112 160.355 603.112C159.693 603.112 159.112 602.639 158.933 601.955L154.265 582.511Z" fill="#4623a5" fill-rule="nonzero" opacity="1" stroke="#5233dd" stroke-linecap="round" stroke-linejoin="round" stroke-width="10" vectornator:layerName="path"/>
<path d="M119.326 634.753C118.929 633.102 117.727 631.812 116.188 631.386L102.792 627.678C102.322 627.535 101.998 627.074 101.998 626.55C101.998 626.026 102.322 625.566 102.792 625.423L116.188 621.713C117.726 621.287 118.928 619.998 119.326 618.347L122.78 603.968C122.912 603.462 123.342 603.112 123.832 603.112C124.321 603.112 124.751 603.462 124.883 603.968L128.335 618.347C128.732 619.999 129.934 621.289 131.473 621.715L144.87 625.421C145.343 625.561 145.671 626.023 145.671 626.55C145.671 627.078 145.343 627.54 144.87 627.68L131.473 631.386C129.934 631.812 128.732 633.102 128.335 634.753L124.881 649.132C124.749 649.639 124.319 649.988 123.83 649.988C123.34 649.988 122.91 649.639 122.778 649.132L119.326 634.753Z" fill="#4623a5" fill-rule="nonzero" opacity="1" stroke="#5233dd" stroke-linecap="round" stroke-linejoin="round" stroke-width="10" vectornator:layerName="path 1"/>
<path d="M189.286 658.847C188.858 657.063 187.56 655.67 185.898 655.21L171.43 651.206C170.923 651.051 170.573 650.554 170.573 649.988C170.573 649.422 170.923 648.925 171.43 648.771L185.898 644.764C187.559 644.304 188.857 642.912 189.286 641.129L193.017 625.601C193.16 625.054 193.624 624.676 194.152 624.676C194.681 624.676 195.145 625.054 195.288 625.601L199.016 641.129C199.445 642.913 200.743 644.306 202.405 644.766L216.872 648.768C217.384 648.92 217.738 649.419 217.738 649.988C217.738 650.557 217.384 651.057 216.872 651.208L202.405 655.21C200.743 655.67 199.445 657.063 199.016 658.847L195.286 674.375C195.143 674.922 194.679 675.3 194.15 675.3C193.621 675.3 193.157 674.922 193.015 674.375L189.286 658.847Z" fill="#4623a5" fill-rule="nonzero" opacity="1" stroke="#5233dd" stroke-linecap="round" stroke-linejoin="round" stroke-width="10" vectornator:layerName="path 2"/>
<g opacity="1" vectornator:layerName="Text 1">
<path d="M381.845 170.028L410.19 170.028C417.563 170.028 423.886 170.712 429.159 172.079C434.433 173.446 439.218 176.01 443.515 179.77C454.696 189.34 460.287 203.891 460.287 223.422C460.287 229.867 459.726 235.751 458.603 241.073C457.48 246.396 455.746 251.193 453.403 255.465C451.059 259.738 448.056 263.559 444.394 266.928C441.513 269.516 438.363 271.591 434.946 273.153C431.528 274.716 427.853 275.814 423.923 276.449C419.992 277.084 415.561 277.401 410.629 277.401L382.284 277.401C378.329 277.401 375.351 276.803 373.349 275.607C371.347 274.411 370.041 272.726 369.43 270.553C368.82 268.38 368.515 265.561 368.515 262.094L368.515 183.358C368.515 178.671 369.565 175.277 371.664 173.178C373.764 171.078 377.157 170.028 381.845 170.028ZM390.268 187.24L390.268 260.116L406.747 260.116C410.361 260.116 413.193 260.019 415.243 259.823C417.294 259.628 419.418 259.14 421.615 258.358C423.813 257.577 425.717 256.479 427.328 255.063C434.604 248.91 438.241 238.314 438.241 223.275C438.241 212.68 436.642 204.745 433.444 199.472C430.246 194.198 426.303 190.841 421.615 189.401C416.928 187.96 411.264 187.24 404.623 187.24L390.268 187.24Z" fill="#5233dd" fill-rule="nonzero" opacity="1" stroke="#5233dd" stroke-linecap="round" stroke-linejoin="round" stroke-width="5" vectornator:layerName="path"/>
<path d="M552.865 238.583C552.865 244.54 551.938 250.033 550.082 255.063C548.227 260.092 545.541 264.413 542.026 268.026C538.51 271.64 534.311 274.411 529.428 276.339C524.545 278.268 519.052 279.232 512.948 279.232C506.894 279.232 501.449 278.256 496.615 276.303C491.781 274.35 487.594 271.554 484.054 267.917C480.514 264.279 477.829 259.982 475.998 255.026C474.167 250.07 473.251 244.589 473.251 238.583C473.251 232.528 474.179 226.986 476.034 221.957C477.89 216.928 480.551 212.631 484.018 209.066C487.485 205.502 491.684 202.755 496.615 200.827C501.547 198.898 506.991 197.934 512.948 197.934C519.003 197.934 524.496 198.91 529.428 200.863C534.36 202.816 538.583 205.6 542.099 209.213C545.614 212.826 548.288 217.123 550.119 222.104C551.95 227.084 552.865 232.577 552.865 238.583ZM532.797 238.583C532.797 230.429 531.003 224.081 527.414 219.54C523.825 214.999 519.003 212.729 512.948 212.729C509.042 212.729 505.6 213.742 502.621 215.768C499.643 217.794 497.348 220.785 495.737 224.74C494.125 228.695 493.32 233.31 493.32 238.583C493.32 243.808 494.113 248.373 495.7 252.279C497.287 256.186 499.557 259.176 502.511 261.252C505.466 263.327 508.945 264.364 512.948 264.364C519.003 264.364 523.825 262.082 527.414 257.516C531.003 252.951 532.797 246.64 532.797 238.583Z" fill="#5233dd" fill-rule="nonzero" opacity="1" stroke="#5233dd" stroke-linecap="round" stroke-linejoin="round" stroke-width="5" vectornator:layerName="path"/>
<path d="M640.317 254.477C640.317 256.967 639.572 259.628 638.083 262.46C636.593 265.292 634.323 267.99 631.271 270.553C628.219 273.117 624.374 275.18 619.736 276.742C615.097 278.305 609.872 279.086 604.062 279.086C591.708 279.086 582.065 275.485 575.131 268.283C568.197 261.081 564.731 251.425 564.731 239.315C564.731 231.112 566.318 223.861 569.491 217.563C572.665 211.264 577.255 206.393 583.261 202.951C589.267 199.508 596.445 197.787 604.794 197.787C609.97 197.787 614.718 198.544 619.04 200.058C623.361 201.571 627.023 203.524 630.026 205.917C633.029 208.31 635.324 210.861 636.911 213.571C638.498 216.281 639.291 218.808 639.291 221.151C639.291 223.544 638.4 225.57 636.618 227.231C634.836 228.891 632.675 229.721 630.136 229.721C628.476 229.721 627.096 229.293 625.998 228.439C624.899 227.585 623.666 226.205 622.299 224.301C619.858 220.59 617.306 217.807 614.645 215.951C611.984 214.096 608.603 213.168 604.501 213.168C598.593 213.168 593.832 215.475 590.219 220.089C586.606 224.704 584.799 231.015 584.799 239.023C584.799 242.782 585.263 246.237 586.191 249.386C587.118 252.536 588.461 255.221 590.219 257.443C591.977 259.665 594.101 261.349 596.591 262.497C599.081 263.644 601.816 264.218 604.794 264.218C608.798 264.218 612.228 263.29 615.085 261.435C617.941 259.579 620.468 256.747 622.665 252.939C623.886 250.692 625.204 248.935 626.62 247.665C628.036 246.396 629.77 245.761 631.821 245.761C634.262 245.761 636.288 246.689 637.9 248.544C639.511 250.399 640.317 252.377 640.317 254.477Z" fill="#5233dd" fill-rule="nonzero" opacity="1" stroke="#5233dd" stroke-linecap="round" stroke-linejoin="round" stroke-width="5" vectornator:layerName="path"/>
<path d="M723.3 186.801L680.453 186.801L680.453 214.267L716.269 214.267C719.589 214.267 722.067 215.011 723.703 216.501C725.339 217.99 726.156 219.98 726.156 222.47C726.156 224.96 725.326 226.938 723.666 228.402C722.006 229.867 719.54 230.6 716.269 230.6L680.453 230.6L680.453 265.976C680.453 270.468 679.44 273.8 677.414 275.973C675.387 278.146 672.787 279.232 669.613 279.232C666.391 279.232 663.766 278.134 661.74 275.937C659.714 273.739 658.7 270.419 658.7 265.976L658.7 183.358C658.7 180.233 659.164 177.682 660.092 175.705C661.02 173.727 662.472 172.287 664.45 171.383C666.427 170.48 668.954 170.028 672.03 170.028L723.3 170.028C726.767 170.028 729.342 170.797 731.027 172.335C732.712 173.874 733.554 175.888 733.554 178.378C733.554 180.917 732.712 182.956 731.027 184.494C729.342 186.032 726.767 186.801 723.3 186.801Z" fill="#5233dd" fill-rule="nonzero" opacity="1" stroke="#5233dd" stroke-linecap="round" stroke-linejoin="round" stroke-width="5" vectornator:layerName="path"/>
<path d="M746.371 267.074L746.371 180.356C746.371 176.352 747.262 173.324 749.045 171.273C750.827 169.223 753.232 168.197 756.259 168.197C759.286 168.197 761.728 169.21 763.583 171.237C765.439 173.263 766.366 176.303 766.366 180.356L766.366 267.074C766.366 271.127 765.426 274.167 763.547 276.193C761.667 278.219 759.237 279.232 756.259 279.232C753.329 279.232 750.949 278.183 749.118 276.083C747.287 273.983 746.371 270.981 746.371 267.074Z" fill="#5233dd" fill-rule="nonzero" opacity="1" stroke="#5233dd" stroke-linecap="round" stroke-linejoin="round" stroke-width="5" vectornator:layerName="path"/>
<path d="M861.874 238.583C861.874 244.54 860.946 250.033 859.091 255.063C857.236 260.092 854.55 264.413 851.034 268.026C847.519 271.64 843.32 274.411 838.437 276.339C833.554 278.268 828.061 279.232 821.957 279.232C815.903 279.232 810.458 278.256 805.624 276.303C800.79 274.35 796.603 271.554 793.063 267.917C789.523 264.279 786.838 259.982 785.007 255.026C783.175 250.07 782.26 244.589 782.26 238.583C782.26 232.528 783.188 226.986 785.043 221.957C786.899 216.928 789.56 212.631 793.027 209.066C796.493 205.502 800.693 202.755 805.624 200.827C810.556 198.898 816 197.934 821.957 197.934C828.012 197.934 833.505 198.91 838.437 200.863C843.368 202.816 847.592 205.6 851.108 209.213C854.623 212.826 857.297 217.123 859.128 222.104C860.959 227.084 861.874 232.577 861.874 238.583ZM841.806 238.583C841.806 230.429 840.011 224.081 836.423 219.54C832.834 214.999 828.012 212.729 821.957 212.729C818.051 212.729 814.609 213.742 811.63 215.768C808.652 217.794 806.357 220.785 804.745 224.74C803.134 228.695 802.328 233.31 802.328 238.583C802.328 243.808 803.122 248.373 804.709 252.279C806.296 256.186 808.566 259.176 811.52 261.252C814.474 263.327 817.953 264.364 821.957 264.364C828.012 264.364 832.834 262.082 836.423 257.516C840.011 252.951 841.806 246.64 841.806 238.583Z" fill="#5233dd" fill-rule="nonzero" opacity="1" stroke="#5233dd" stroke-linecap="round" stroke-linejoin="round" stroke-width="5" vectornator:layerName="path"/>
<path d="M890.072 210.385L903.11 255.063L914.975 213.534C916.244 209.189 917.184 206.222 917.795 204.635C918.405 203.048 919.552 201.535 921.237 200.094C922.922 198.654 925.229 197.934 928.158 197.934C931.137 197.934 933.468 198.654 935.153 200.094C936.838 201.535 938.022 203.097 938.705 204.782C939.389 206.466 940.341 209.384 941.562 213.534L953.427 255.063L966.611 210.385C967.489 207.162 968.197 204.831 968.735 203.39C969.272 201.95 970.175 200.68 971.445 199.582C972.714 198.483 974.545 197.934 976.938 197.934C979.33 197.934 981.405 198.764 983.163 200.424C984.921 202.084 985.8 204.037 985.8 206.283C985.8 208.334 985.043 211.435 983.529 215.585L967.196 263.485C965.78 267.538 964.682 270.468 963.901 272.274C963.119 274.081 961.886 275.692 960.202 277.108C958.517 278.524 956.21 279.232 953.28 279.232C950.253 279.232 947.873 278.476 946.139 276.962C944.406 275.448 943.124 273.593 942.294 271.396C941.464 269.198 940.561 266.342 939.584 262.826L928.158 223.861L917.099 262.826C915.634 268.246 914.047 272.335 912.338 275.094C910.629 277.853 907.626 279.232 903.329 279.232C901.132 279.232 899.264 278.805 897.726 277.951C896.188 277.096 894.906 275.876 893.881 274.289C892.856 272.702 891.952 270.822 891.171 268.649C890.39 266.476 889.779 264.755 889.34 263.485L873.154 215.585C871.542 211.093 870.737 207.992 870.737 206.283C870.737 204.135 871.591 202.206 873.3 200.497C875.009 198.788 877.109 197.934 879.599 197.934C882.919 197.934 885.165 198.874 886.337 200.753C887.509 202.633 888.754 205.844 890.072 210.385Z" fill="#5233dd" fill-rule="nonzero" opacity="1" stroke="#5233dd" stroke-linecap="round" stroke-linejoin="round" stroke-width="5" vectornator:layerName="path"/>
</g>
<path d="M200.705 46.0609L80.7867 46.0609C66.0692 46.0609 54.1383 57.9918 54.1383 72.7093L54.1383 285.897C54.1383 300.614 66.0692 312.545 80.7867 312.545L240.677 312.545C255.395 312.545 267.326 300.614 267.326 285.897L267.326 112.682L200.705 46.0609Z" fill="none" opacity="1" stroke="#5233dd" stroke-linecap="round" stroke-linejoin="round" stroke-width="25" vectornator:layerName="path 3"/>
<path d="M186.356 260.662L92.9978 260.662" fill="none" opacity="1" stroke="#5233dd" stroke-linecap="round" stroke-linejoin="round" stroke-width="25" vectornator:layerName="path 4"/>
<path d="M201.916 167.303L92.9978 167.303" fill="none" opacity="1" stroke="#5233dd" stroke-linecap="round" stroke-linejoin="round" stroke-width="25" vectornator:layerName="path 5"/>
<path d="M226.1 213.982L92.9978 213.982" fill="none" opacity="1" stroke="#5233dd" stroke-linecap="round" stroke-linejoin="round" stroke-width="25" vectornator:layerName="path 6"/>
<path d="M149.061 104.831C148.643 103.213 147.379 101.949 145.76 101.531L131.669 97.8974C131.175 97.7572 130.834 97.3061 130.834 96.7926C130.834 96.2792 131.175 95.8281 131.669 95.6879L145.76 92.0521C147.378 91.6349 148.642 90.3718 149.061 88.7539L152.694 74.6631C152.833 74.1671 153.285 73.8242 153.8 73.8242C154.315 73.8242 154.767 74.1671 154.906 74.6631L158.537 88.7539C158.955 90.3727 160.219 91.6368 161.838 92.0544L175.928 95.6856C176.426 95.823 176.771 96.276 176.771 96.7926C176.771 97.3093 176.426 97.7623 175.928 97.8997L161.838 101.531C160.219 101.949 158.955 103.213 158.537 104.831L154.904 118.922C154.765 119.418 154.313 119.761 153.798 119.761C153.283 119.761 152.831 119.418 152.692 118.922L149.061 104.831Z" fill="#5233dd" fill-rule="nonzero" opacity="1" stroke="#5233dd" stroke-linecap="round" stroke-linejoin="round" stroke-width="5" vectornator:layerName="path 7"/>
<path d="M181.132 135.693C180.885 134.759 180.15 134.033 179.213 133.797L171.06 131.747C170.774 131.667 170.575 131.408 170.573 131.111C170.572 130.815 170.767 130.553 171.052 130.47L179.181 128.321C180.114 128.074 180.84 127.34 181.076 126.404L183.127 118.25C183.205 117.963 183.465 117.763 183.763 117.761C184.06 117.759 184.323 117.956 184.404 118.242L186.551 126.371C186.798 127.304 187.533 128.03 188.47 128.266L196.624 130.315C196.912 130.393 197.113 130.653 197.115 130.952C197.116 131.25 196.919 131.513 196.631 131.595L188.503 133.741C187.569 133.988 186.843 134.723 186.607 135.66L184.557 143.814C184.478 144.101 184.218 144.3 183.921 144.302C183.623 144.304 183.361 144.107 183.279 143.821L181.132 135.693Z" fill="#5233dd" fill-rule="nonzero" opacity="1" stroke="#5233dd" stroke-linecap="round" stroke-linejoin="round" stroke-width="5" vectornator:layerName="path 8"/>
<path d="M116.821 125.404C116.58 124.469 115.85 123.738 114.915 123.496L106.775 121.393C106.49 121.312 106.293 121.051 106.293 120.754C106.293 120.458 106.49 120.197 106.776 120.116L114.918 118.02C115.853 117.779 116.584 117.05 116.826 116.115L118.929 107.975C119.01 107.688 119.271 107.49 119.569 107.49C119.866 107.49 120.127 107.689 120.207 107.975L122.301 116.118C122.542 117.053 123.272 117.784 124.207 118.026L132.348 120.128C132.635 120.207 132.835 120.469 132.834 120.768C132.834 121.066 132.635 121.328 132.347 121.407L124.205 123.501C123.269 123.742 122.538 124.472 122.297 125.407L120.193 133.548C120.113 133.834 119.851 134.032 119.554 134.032C119.256 134.032 118.995 133.833 118.915 133.547L116.821 125.404Z" fill="#5233dd" fill-rule="nonzero" opacity="1" stroke="#5233dd" stroke-linecap="round" stroke-linejoin="round" stroke-width="5" vectornator:layerName="path 9"/>
</g>
</svg>
